<?xml version="1.0" encoding="UTF-8" standalone="no"?>
<!-- Created with Inkscape (http://www.inkscape.org/) -->

<svg
   width="300mm"
   height="300mm"
   viewBox="0 0 299.99998 300"
   version="1.1"
   id="svg1023"
   inkscape:version="1.1.1 (c3084ef, 2021-09-22)"
   sodipodi:docname="wheel.svg"
   xmlns:inkscape="http://www.inkscape.org/namespaces/inkscape"
   xmlns:sodipodi="http://sodipodi.sourceforge.net/DTD/sodipodi-0.dtd"
   xmlns="http://www.w3.org/2000/svg"
   xmlns:svg="http://www.w3.org/2000/svg">
  <sodipodi:namedview
     id="namedview1025"
     pagecolor="#505050"
     bordercolor="#ffffff"
     borderopacity="1"
     inkscape:pageshadow="0"
     inkscape:pageopacity="0"
     inkscape:pagecheckerboard="1"
     inkscape:document-units="mm"
     showgrid="false"
     inkscape:zoom="0.39838695"
     inkscape:cx="505.78966"
     inkscape:cy="476.92326"
     inkscape:window-width="1312"
     inkscape:window-height="786"
     inkscape:window-x="98"
     inkscape:window-y="25"
     inkscape:window-maximized="0"
     inkscape:current-layer="layer1" />
  <defs
     id="defs1020" />
  <g
     inkscape:label="Layer 1"
     inkscape:groupmode="layer"
     id="layer1">
    <ellipse
       style="opacity:0.25;fill:#147cb8;fill-opacity:1;stroke:#262626;stroke-width:21.3014;stroke-linecap:round;stroke-linejoin:round;stroke-miterlimit:4;stroke-dasharray:none;stroke-opacity:1;paint-order:stroke markers fill"
       id="path28734-9-5"
       cx="60.026287"
       cy="37.223797"
       rx="39.073776"
       ry="39.617271"
       transform="matrix(0.97331909,0.22945576,-0.22714903,0.97386001,0,0)" />
    <path
       fill="#dfdbdb"
       d="m 64.494824,53.080887 c 0.842881,-3.613699 7.643587,-3.328883 12.566259,-2.45486 0.168264,-3.79478 -0.442591,-7.508779 -1.75289,-10.924898 -4.393714,2.446056 -10.544871,5.018682 -12.457631,1.857212 -1.917622,-3.140585 3.070383,-7.618166 7.176292,-10.506695 -2.43553,-2.689707 -5.434994,-4.917375 -8.856949,-6.451302 -1.396903,4.871407 -4.186311,12.716648 -7.769045,11.872034 -3.582724,-0.844611 -2.914137,-9.189827 -2.031995,-14.182587 -3.743503,-0.155299 -7.410452,0.47875 -10.786301,1.820491 2.395796,4.44331 5.885098,11.587344 2.758072,13.538685 -3.106422,1.956178 -8.479965,-4.001311 -11.313488,-8.151157 -2.663655,2.479276 -4.873671,5.528268 -6.400914,9.002674 4.800875,1.396229 12.19331,4.082158 11.345556,7.71675 -0.847753,3.634583 -8.742015,3.100147 -13.664694,2.226133 -0.168265,3.794769 0.442588,7.508768 1.75289,10.924877 4.393712,-2.446046 10.689422,-4.691223 12.60217,-1.529745 1.917629,3.140596 -3.214915,7.290711 -7.320834,10.179238 2.435527,2.689716 5.434992,4.917385 8.856937,6.451309 1.396917,-4.871423 4.228043,-12.895519 7.810776,-12.050905 3.582734,0.844614 2.872421,9.368682 1.990264,14.361458 3.743513,0.155301 7.410464,-0.478757 10.786314,-1.820498 -2.395785,-4.443317 -4.065154,-10.386457 -0.938128,-12.337798 3.106434,-1.956185 6.66002,2.800424 9.493546,6.95026 2.663653,-2.479266 4.873671,-5.528257 6.400914,-9.002653 -4.80087,-1.396228 -11.094873,-3.85344 -10.247121,-7.488023 z"
       id="path29036-4-1"
       style="opacity:0.25;fill:#153a4f;fill-opacity:1;stroke-width:0.213014"
       sodipodi:nodetypes="scccccscccccscccccscccccs" />
    <ellipse
       style="opacity:0.25;fill:#147cb8;fill-opacity:1;stroke:#147cb8;stroke-width:0;stroke-linecap:round;stroke-linejoin:round;stroke-miterlimit:4;stroke-dasharray:none;stroke-opacity:1;paint-order:stroke markers fill"
       id="path30223-9-3"
       cx="60.578564"
       cy="36.5215"
       rx="5.1542068"
       ry="5.2258992"
       transform="matrix(0.97331909,0.22945576,-0.22714903,0.97386001,0,0)" />
    <ellipse
       style="opacity:0.25;fill:#147cb8;fill-opacity:1;stroke:#262626;stroke-width:21.3186;stroke-linecap:round;stroke-linejoin:round;stroke-miterlimit:4;stroke-dasharray:none;stroke-opacity:1;paint-order:stroke markers fill"
       id="path28734-9-5-8"
       cx="241.57536"
       cy="149.51161"
       rx="39.57259"
       ry="39.181179"
       transform="matrix(0.97464534,0.22375534,-0.23292623,0.97249441,0,0)" />
    <path
       fill="#dfdbdb"
       d="m 215.35605,202.47184 c 0.8548,-3.56891 7.75171,-3.28762 12.74402,-2.42443 0.17064,-3.74775 -0.44885,-7.41571 -1.77769,-10.78949 -4.45587,2.41574 -10.69404,4.95648 -12.63385,1.83419 -1.94475,-3.10166 3.11381,-7.52374 7.2778,-10.37647 -2.46998,-2.65637 -5.51187,-4.85642 -8.98223,-6.37134 -1.41667,4.81103 -4.24554,12.55903 -7.87895,11.72489 -3.6334,-0.83415 -2.95536,-9.07593 -2.06074,-14.0068 -3.79646,-0.15338 -7.51528,0.47281 -10.93888,1.79792 2.42968,4.38824 5.96835,11.44373 2.79708,13.37088 -3.15036,1.93193 -8.59992,-3.95171 -11.47352,-8.05012 -2.70134,2.44854 -4.94262,5.45974 -6.49146,8.89109 4.86878,1.37892 12.36579,4.03156 11.50605,7.6211 -0.85975,3.58954 -8.86568,3.06172 -13.858,2.19854 -0.17064,3.74774 0.44885,7.4157 1.77769,10.78947 4.45586,-2.41573 10.84063,-4.63308 12.78044,-1.51078 1.94475,3.10167 -3.2604,7.20034 -7.4244,10.05307 2.46998,2.65638 5.51188,4.85643 8.98223,6.37135 1.41668,-4.81105 4.28785,-12.73569 7.92127,-11.90154 3.63341,0.83414 2.91305,9.25256 2.01842,14.18345 3.79646,0.15338 7.51529,-0.47282 10.93889,-1.79793 -2.42967,-4.38825 -4.12266,-10.25773 -0.9514,-12.18488 3.15038,-1.93194 6.75424,2.76571 9.62784,6.86411 2.70134,-2.44853 4.94262,-5.45973 6.49146,-8.89107 -4.86878,-1.37892 -11.25182,-3.80567 -10.39207,-7.39521 z"
       id="path29036-4-1-3"
       style="opacity:0.25;fill:#153a4f;fill-opacity:1;stroke-width:0.213181"
       sodipodi:nodetypes="scccccscccccscccccscccccs" />
    <ellipse
       style="opacity:0.25;fill:#147cb8;fill-opacity:1;stroke:#147cb8;stroke-width:0;stroke-linecap:round;stroke-linejoin:round;stroke-miterlimit:4;stroke-dasharray:none;stroke-opacity:1;paint-order:stroke markers fill"
       id="path30223-9-3-8"
       cx="242.13469"
       cy="148.81705"
       rx="5.220005"
       ry="5.1683741"
       transform="matrix(0.97464534,0.22375534,-0.23292623,0.97249441,0,0)" />
  </g>
</svg>
