<?xml version="1.0" standalone="no"?>
<!DOCTYPE svg PUBLIC "-//W3C//DTD SVG 20010904//EN"
 "http://www.w3.org/TR/2001/REC-SVG-20010904/DTD/svg10.dtd">
<svg version="1.0" xmlns="http://www.w3.org/2000/svg"
 width="751.000000pt" height="751.000000pt" viewBox="0 0 751.000000 751.000000"
 preserveAspectRatio="xMidYMid meet">
<metadata>
Created by potrace 1.14, written by Peter Selinger 2001-2017
</metadata>
<g transform="translate(0.000000,751.000000) scale(0.100000,-0.100000)"
fill="#000000" stroke="none">
<path d="M3752 7492 c-105 -41 -177 -136 -196 -257 -8 -53 -26 -179 -31 -220
-2 -22 -7 -58 -10 -80 -3 -22 -8 -55 -10 -72 -34 -241 -57 -403 -60 -423 -11
-76 -16 -109 -20 -150 -3 -25 -7 -58 -10 -75 -3 -16 -7 -47 -10 -67 -6 -48
-11 -83 -25 -178 -11 -81 -15 -107 -25 -185 -3 -27 -8 -61 -10 -75 -3 -14 -7
-42 -10 -62 -3 -21 -7 -53 -9 -70 -3 -18 -8 -55 -11 -83 -7 -57 -13 -99 -20
-135 -2 -14 -7 -47 -10 -75 -3 -27 -10 -77 -15 -110 -5 -33 -12 -82 -16 -110
-3 -27 -7 -57 -9 -65 -1 -8 -6 -43 -10 -78 -4 -34 -11 -64 -16 -67 -5 -3 -28
5 -51 18 -157 87 -428 174 -628 203 -155 22 -403 26 -555 9 -148 -16 -383 -80
-545 -148 -481 -199 -886 -605 -1085 -1088 -40 -97 -104 -303 -110 -355 -2
-11 -8 -45 -14 -75 -20 -104 -26 -175 -26 -344 0 -175 6 -259 25 -355 6 -30
13 -66 16 -80 17 -89 64 -236 112 -350 214 -511 640 -922 1156 -1116 86 -32
209 -69 261 -80 11 -2 43 -8 70 -14 87 -18 99 -20 170 -27 90 -10 372 -10 450
0 33 4 98 14 144 23 46 8 85 13 88 11 2 -3 0 -29 -5 -58 -16 -85 -8 -207 16
-261 44 -98 148 -177 252 -191 25 -4 56 -9 70 -12 14 -3 36 -7 50 -10 14 -3
34 -7 45 -9 11 -2 40 -7 65 -11 86 -14 95 -16 110 -20 8 -2 31 -7 50 -10 19
-3 121 -22 225 -41 105 -19 206 -37 225 -40 19 -3 42 -7 50 -9 8 -2 31 -7 50
-10 19 -3 80 -14 135 -24 157 -30 168 -32 200 -37 17 -3 66 -12 110 -20 44 -9
91 -17 105 -20 14 -2 48 -9 75 -14 28 -5 64 -12 80 -15 17 -2 41 -7 55 -10 14
-2 36 -6 50 -9 14 -2 66 -11 115 -21 50 -9 99 -18 110 -19 11 -2 34 -6 50 -9
17 -4 41 -8 55 -11 34 -5 468 -85 500 -91 24 -5 165 -31 225 -42 17 -3 64 -11
105 -19 249 -45 272 -48 324 -37 134 28 222 134 242 288 2 22 11 87 20 145 21
149 22 159 29 215 3 28 8 61 10 75 7 37 13 79 20 135 3 28 10 77 15 110 9 59
18 121 25 180 2 17 9 66 16 110 6 44 13 94 15 110 1 17 10 80 19 140 9 61 18
124 20 140 5 38 35 252 40 285 2 14 6 48 10 75 3 28 8 64 10 80 14 98 46 325
50 355 3 19 14 103 26 185 11 83 22 164 25 180 2 17 8 64 14 105 6 41 13 86
15 100 2 14 6 43 9 65 4 22 9 60 11 85 3 25 10 72 15 105 5 33 12 80 15 105 8
65 14 110 30 220 12 82 14 95 20 140 3 25 8 63 11 85 3 22 7 51 9 65 2 14 6
44 10 68 8 47 10 65 19 138 4 28 8 60 11 72 2 11 6 45 9 74 4 29 8 64 11 78 3
14 7 45 10 70 3 25 7 56 10 70 2 14 7 43 9 65 5 35 41 293 51 365 2 14 7 50
10 80 4 30 9 62 10 70 5 29 15 96 20 140 5 41 21 158 30 220 2 14 9 61 15 105
12 90 17 121 31 220 5 39 12 86 14 105 9 72 26 187 29 206 2 10 7 46 11 79 4
32 9 68 11 80 2 11 9 58 14 105 6 47 13 96 15 110 16 90 20 124 20 200 -1 73
-5 93 -29 140 -34 68 -84 120 -141 149 -43 21 -83 31 -270 65 -49 9 -101 19
-115 21 -14 3 -41 8 -60 11 -19 4 -44 8 -55 11 -11 2 -36 6 -55 9 -19 2 -55 9
-80 14 -41 9 -376 71 -460 85 -33 5 -318 57 -385 70 -16 3 -43 8 -60 10 -16 3
-52 9 -80 15 -27 5 -63 12 -80 15 -16 3 -39 7 -50 9 -31 6 -186 35 -225 41
-19 3 -53 10 -75 15 -22 5 -60 11 -85 15 -25 3 -52 8 -60 10 -8 2 -53 11 -100
19 -47 9 -98 18 -115 21 -16 3 -39 7 -51 10 -12 3 -39 7 -60 10 -21 3 -50 8
-64 11 -14 3 -36 8 -50 10 -14 2 -74 14 -135 25 -60 12 -123 23 -140 25 -16 3
-50 9 -75 14 -25 5 -72 14 -105 20 -33 5 -71 13 -85 16 -61 14 -166 12 -208
-4z"/>
</g>
</svg>
